<svg id="Group_99600" data-name="Group 99600" xmlns="http://www.w3.org/2000/svg" xmlns:xlink="http://www.w3.org/1999/xlink" width="161.518" height="44.004" viewBox="0 0 161.518 44.004">
  <defs>
    <clipPath id="clip-path">
      <rect id="Rectangle_69960" data-name="Rectangle 69960" width="161.518" height="44.004" fill="none"/>
    </clipPath>
  </defs>
  <g id="Group_99599" data-name="Group 99599" clip-path="url(#clip-path)">
    <path id="Path_195249" data-name="Path 195249" d="M167.935,272.779h0c.848,0,1.473-.164,1.473-.966,0-.712-.576-.936-1.473-.936h-2.887v1.908Zm-.035-3.014h0c.874,0,1.243-.2,1.243-.773s-.376-.8-1.243-.8h-2.852v1.577Zm-4.175-2.68h4.091c1.6,0,2.67.453,2.67,1.744a1.483,1.483,0,0,1-.791,1.408,1.8,1.8,0,0,1,1.044,1.675c0,1.284-1.015,1.967-2.67,1.967H163.72Z" transform="translate(-141.117 -230.213)" fill="#6ab14a"/>
    <path id="Path_195250" data-name="Path 195250" d="M269.1,270.872c0,2.184-1.4,3.182-3.613,3.182s-3.6-1-3.6-3.182v-3.786h1.329v3.786c0,1.129.4,2.039,2.274,2.039s2.281-.91,2.281-2.039v-3.786H269.1Z" transform="translate(-225.726 -230.213)" fill="#6ab14a"/>
    <rect id="Rectangle_69959" data-name="Rectangle 69959" width="1.329" height="6.794" transform="translate(52.748 36.873)" fill="#6ab14a"/>
    <path id="Path_195251" data-name="Path 195251" d="M463.04,267.086h1.324V272.7H469.3v1.176H463.04Z" transform="translate(-399.114 -230.213)" fill="#6ab14a"/>
    <path id="Path_195252" data-name="Path 195252" d="M561.364,272.706h0c2.26,0,3.146-.69,3.146-2.277,0-1.671-.913-2.237-3.146-2.237h-1.342v4.513Zm-2.674-5.66h3.271c2.158,0,3.882.913,3.882,3.355,0,2.326-1.583,3.439-3.823,3.439h-3.33Z" transform="translate(-481.559 -230.178)" fill="#6ab14a"/>
    <path id="Path_195253" data-name="Path 195253" d="M659.641,268.228H656.6v-1.142h7.417v1.142h-3.05v5.652h-1.325Z" transform="translate(-565.951 -230.213)" fill="#6ab14a"/>
    <path id="Path_195254" data-name="Path 195254" d="M759.84,267.086h6.1v1.142h-4.768v1.581h4.1v1.136h-4.1v1.8h4.872v1.139h-6.2Z" transform="translate(-654.938 -230.213)" fill="#6ab14a"/>
    <path id="Path_195255" data-name="Path 195255" d="M861.131,271.621c-.128.755-.674,2.587-3.792,2.587-2.15,0-3.849-1.194-3.849-3.681,0-1.97,1.254-3.451,3.943-3.451,3.037,0,3.5,1.98,3.59,2.337h-1.314a2.189,2.189,0,0,0-2.194-1.2c-1.876,0-2.666,1.057-2.666,2.473a2.33,2.33,0,0,0,2.583,2.382,2.285,2.285,0,0,0,2.37-1.448Z" transform="translate(-735.659 -230.204)" fill="#6ab14a"/>
    <path id="Path_195256" data-name="Path 195256" d="M953.85,267.086h1.341v2.692h4.553v-2.692h1.335v6.794h-1.335v-2.923H955.19v2.923H953.85Z" transform="translate(-822.164 -230.213)" fill="#6ab14a"/>
    <path id="Path_195257" data-name="Path 195257" d="M16.31.274h0V.266H0v21.11H2.745V13.093H16.31v-.011a6.4,6.4,0,0,0,0-12.808m-.138,10.078H2.745V3.016H16.168a3.665,3.665,0,0,1,0,7.331Z" transform="translate(0 -0.229)" fill="#fff"/>
    <path id="Path_195258" data-name="Path 195258" d="M513.871,6.677h0A6.418,6.418,0,0,0,507.463.266h-16.4V21.49H493.8v-8.4H504.51l5.384,8.292h4.111l-5.394-8.4a6.428,6.428,0,0,0,5.26-6.312m-6.5,3.67H493.8V3.016h13.668a3.665,3.665,0,0,1,0,7.331Z" transform="translate(-423.266 -0.229)" fill="#fff"/>
    <path id="Path_195259" data-name="Path 195259" d="M1019.19,11.414c-1.477-1.657-3.9-1.657-5.834-1.9-1.586-.2-2.858-.26-4.091-.311-.922-.05-1.875-.09-2.971-.186-.16-.015-.323-.041-.509-.046-3.9-.358-5.67-1.586-5.67-2.677,0-1.657,4.1-3.224,7.08-3.283h.041a15.548,15.548,0,0,1,10.786,3.058l1.519-2.92c-.195-.138-4.785-3.578-12.548-3.1-1.722.046-9.91.526-9.91,6.269,0,4.832,5.531,5.332,8.506,5.593l.5.046c1.145.109,2.133.164,3.1.2,1.232.055,2.4.109,3.889.3.81.1,3.224.4,4.19,1.487a1.441,1.441,0,0,1,.414.921,1.34,1.34,0,0,1-.395.828c-1.632,1.709-4.679,2.441-6.872,2.608a26.144,26.144,0,0,1-2.8.044,19.008,19.008,0,0,1-9.5-3.529l-1.534,2.9a20.818,20.818,0,0,0,10.86,3.765c.367.015.737.028,1.117.028.646,0,1.3-.028,1.96-.083,2.833-.214,6.38-.759,8.626-3.135a4.984,4.984,0,0,0,1.37-3.381,5.075,5.075,0,0,0-1.317-3.5" transform="translate(-858.995 0)" fill="#fff"/>
    <path id="Path_195260" data-name="Path 195260" d="M726.389,4.84h0l8.322,10.4-8.322-3.628-8.34,3.646Zm0-4.574L709.77,21.481l16.619-6.859,16.633,6.859Z" transform="translate(-611.781 -0.229)" fill="#fff"/>
    <path id="Path_195261" data-name="Path 195261" d="M209.937,4.84h0l9.119,10.4-9.119-3.628-9.159,3.646Zm0-4.574L192.5,21.481l17.437-6.859,17.423,6.859Z" transform="translate(-165.924 -0.229)" fill="#fff"/>
  </g>
</svg>
